HIERARCHY
ROOT Hips
{
	OFFSET 0.000000 89.005402 0.000000
	CHANNELS 6 Xposition Yposition Zposition Xrotation Yrotation Zrotation
	JOINT Spine
	{
		OFFSET 0.116900 10.681000 0.373400
		CHANNELS 3 Xrotation Yrotation Zrotation
		JOINT Spine1
		{
			OFFSET 0.000000 13.840401 0.053500
			CHANNELS 3 Xrotation Yrotation Zrotation
			JOINT Spine2
			{
				OFFSET 0.000000 14.712700 -0.366200
				CHANNELS 3 Xrotation Yrotation Zrotation
				JOINT Neck
				{
					OFFSET 0.000000 35.415497 -3.314200
					CHANNELS 3 Xrotation Yrotation Zrotation
					JOINT Head
					{
						OFFSET 0.000000 16.899200 1.218300
						CHANNELS 3 Xrotation Yrotation Zrotation
						JOINT HeadTop_End
						{
							OFFSET 0.000000 22.206207 2.192500
							CHANNELS 3 Xrotation Yrotation Zrotation
							End Site
							{
								OFFSET 0.000000 22.314178 0.000000
							}
						}
					}
				}
				JOINT LeftShoulder
				{
					OFFSET 12.896400 26.716293 -4.548400
					CHANNELS 3 Xrotation Yrotation Zrotation
					JOINT LeftArm
					{
						OFFSET 19.027000 -4.857010 -1.718400
						CHANNELS 3 Xrotation Yrotation Zrotation
						JOINT LeftForeArm
						{
							OFFSET 24.179897 0.000000 0.000000
							CHANNELS 3 Xrotation Yrotation Zrotation
							JOINT LeftHand
							{
								OFFSET 27.156403 0.000000 0.000000
								CHANNELS 3 Xrotation Yrotation Zrotation
								JOINT LeftHandIndex1
								{
									OFFSET 16.441200 0.000000 0.000000
									CHANNELS 3 Xrotation Yrotation Zrotation
									JOINT LeftHandIndex2
									{
										OFFSET 4.821899 0.000000 0.000000
										CHANNELS 3 Xrotation Yrotation Zrotation
										JOINT LeftHandIndex3
										{
											OFFSET 6.386497 0.000000 0.000000
											CHANNELS 3 Xrotation Yrotation Zrotation
											JOINT LeftHandIndex4
											{
												OFFSET 5.188988 0.000000 0.000000
												CHANNELS 3 Xrotation Yrotation Zrotation
												End Site
												{
													OFFSET -0.178703 5.185913 0.000177
												}
											}
										}
									}
								}
								JOINT LeftHandThumb1
								{
									OFFSET 6.534897 -5.032593 5.900300
									CHANNELS 3 Xrotation Yrotation Zrotation
									JOINT LeftHandThumb2
									{
										OFFSET 3.818176 -2.204422 2.204423
										CHANNELS 3 Xrotation Yrotation Zrotation
										JOINT LeftHandThumb3
										{
											OFFSET 3.252098 -1.877594 1.877601
											CHANNELS 3 Xrotation Yrotation Zrotation
											JOINT LeftHandThumb4
											{
												OFFSET 5.251778 -3.032120 3.032117
												CHANNELS 3 Xrotation Yrotation Zrotation
												End Site
												{
													OFFSET 0.000023 6.780014 0.000000
												}
											}
										}
									}
								}
							}
						}
					}
				}
				JOINT RightShoulder
				{
					OFFSET -12.896300 26.716293 -4.548400
					CHANNELS 3 Xrotation Yrotation Zrotation
					JOINT RightArm
					{
						OFFSET -19.027000 -4.857010 -1.718400
						CHANNELS 3 Xrotation Yrotation Zrotation
						JOINT RightForeArm
						{
							OFFSET -24.179897 0.000000 0.000000
							CHANNELS 3 Xrotation Yrotation Zrotation
							JOINT RightHand
							{
								OFFSET -27.156403 0.000000 0.000000
								CHANNELS 3 Xrotation Yrotation Zrotation
								JOINT RightHandThumb1
								{
									OFFSET -6.591202 -4.852203 5.988100
									CHANNELS 3 Xrotation Yrotation Zrotation
									JOINT RightHandThumb2
									{
										OFFSET -3.818176 -2.204422 2.204423
										CHANNELS 3 Xrotation Yrotation Zrotation
										JOINT RightHandThumb3
										{
											OFFSET -3.252098 -1.877594 1.877601
											CHANNELS 3 Xrotation Yrotation Zrotation
											JOINT RightHandThumb4
											{
												OFFSET -5.251778 -3.032120 3.032117
												CHANNELS 3 Xrotation Yrotation Zrotation
												End Site
												{
													OFFSET -0.000023 6.780014 0.000000
												}
											}
										}
									}
								}
								JOINT RightHandIndex1
								{
									OFFSET -16.029404 0.000000 0.000000
									CHANNELS 3 Xrotation Yrotation Zrotation
									JOINT RightHandIndex2
									{
										OFFSET -5.213303 0.000000 0.000000
										CHANNELS 3 Xrotation Yrotation Zrotation
										JOINT RightHandIndex3
										{
											OFFSET -6.386528 0.000000 0.000000
											CHANNELS 3 Xrotation Yrotation Zrotation
											JOINT RightHandIndex4
											{
												OFFSET -5.189026 0.000000 0.000000
												CHANNELS 3 Xrotation Yrotation Zrotation
												End Site
												{
													OFFSET 0.236702 5.183624 0.001972
												}
											}
										}
									}
								}
							}
						}
					}
				}
			}
		}
	}
	JOINT LeftUpLeg
	{
		OFFSET 14.073000 -7.904099 -1.463000
		CHANNELS 3 Xrotation Yrotation Zrotation
		JOINT LeftLeg
		{
			OFFSET -0.109806 -34.073280 4.093200
			CHANNELS 3 Xrotation Yrotation Zrotation
			JOINT LeftFoot
			{
				OFFSET 0.109806 -29.899420 -6.319000
				CHANNELS 3 Xrotation Yrotation Zrotation
				JOINT LeftToeBase
				{
					OFFSET 1.551100 -14.988700 20.535801
					CHANNELS 3 Xrotation Yrotation Zrotation
					JOINT LeftToe_End
					{
						OFFSET 0.221200 0.570800 13.248301
						CHANNELS 3 Xrotation Yrotation Zrotation
						End Site
						{
							OFFSET 0.000000 13.262435 0.000000
						}
					}
				}
			}
		}
	}
	JOINT RightUpLeg
	{
		OFFSET -13.839300 -7.904099 -1.463000
		CHANNELS 3 Xrotation Yrotation Zrotation
		JOINT RightLeg
		{
			OFFSET 0.109694 -34.073219 4.093300
			CHANNELS 3 Xrotation Yrotation Zrotation
			JOINT RightFoot
			{
				OFFSET -0.109694 -29.899384 -6.319200
				CHANNELS 3 Xrotation Yrotation Zrotation
				JOINT RightToeBase
				{
					OFFSET -1.551100 -14.988700 20.535801
					CHANNELS 3 Xrotation Yrotation Zrotation
					JOINT RightToe_End
					{
						OFFSET -0.221200 0.570900 13.248299
						CHANNELS 3 Xrotation Yrotation Zrotation
						End Site
						{
							OFFSET 0.000000 13.262440 0.000000
						}
					}
				}
			}
		}
	}
}
MOTION
Frames: 5
Frame Time: 0.033333
1.204041 85.912811 1.331198 -0.893580 1.574614 -4.816623 1.286635 -1.206646 2.474267 0.728744 0.264195 5.944687 0.710789 0.781493 5.851997 1.045309 -0.304693 -2.163986 1.584931 0.544179 -8.140494 -0.000000 0.000000 0.000000 3.582358 -13.764040 -5.044456 4.032785 3.514251 -83.678341 0.000004 -14.506748 0.000043 -27.592513 3.698844 -9.416217 0.339565 4.671351 -7.844261 0.387037 2.823581 -20.566244 0.034626 0.816832 -10.169801 -0.000000 0.000001 -0.000001 18.491276 -0.461421 10.916073 1.284058 32.757587 -3.088988 2.117132 9.311162 -0.358624 -0.000000 -0.000001 -0.000001 4.508129 3.324373 5.471577 -1.219628 0.655871 67.345433 -0.000000 17.736787 0.000001 -11.193157 -9.123243 10.139295 18.491276 0.461426 -10.916064 1.284041 -32.757601 3.088937 2.008703 -8.430461 1.114733 -0.000000 -0.000000 0.000001 0.339566 -4.671355 7.844299 0.387031 -2.823581 20.566255 -0.193125 -0.216348 13.843940 0.000000 -0.000000 -0.000002 -17.834051 11.030359 16.763156 23.665173 8.786857 2.279001 -4.180016 4.012866 -10.862795 -0.446331 0.000007 -0.000002 -0.000000 -0.000002 -0.000000 2.385904 -4.084626 10.975551 8.069845 -5.303836 3.192034 -9.631126 1.084511 -8.313255 -0.548656 0.000002 -0.000001 -0.000000 0.000000 -0.000000 
1.275710 85.896660 1.309525 -0.949198 1.704995 -4.642128 1.325006 -1.145530 2.468281 0.736585 0.278482 5.890435 0.719130 0.791008 5.798553 1.090932 -0.324760 -2.163638 1.718457 0.451593 -8.065248 -0.000000 -0.000000 -0.000000 3.568913 -13.852909 -4.956998 3.033761 3.264569 -83.292388 0.000004 -14.289726 0.000002 -26.434285 3.892275 -9.724226 0.394310 4.756372 -8.583716 0.418395 2.905186 -21.432866 0.036441 0.829515 -10.296112 0.000000 -0.000001 0.000004 18.452548 -0.701719 10.843285 1.410317 33.078978 -3.090112 2.045948 9.412870 -0.229998 -0.000000 -0.000003 -0.000000 4.494373 3.410795 5.447589 -1.041111 0.047045 67.114559 0.000004 17.656054 -0.000006 -10.540766 -9.725029 10.324400 18.441825 0.438096 -10.907726 1.293262 -32.714642 3.078916 1.991975 -8.434622 1.129596 -0.000001 0.000004 -0.000001 0.339673 -4.672146 7.852189 0.390967 -2.834032 20.676928 -0.193125 -0.216348 13.843939 -0.000000 -0.000000 0.000002 -17.754057 11.076224 16.445391 23.614539 8.729299 2.341330 -4.165754 4.013594 -10.766392 -0.484618 0.000005 -0.000005 0.000000 -0.000000 0.000000 2.180542 -4.068307 10.739464 8.597860 -5.310431 3.182618 -9.932095 0.927947 -8.228400 -0.510696 -0.000003 0.000002 -0.000000 0.000000 -0.000000 
1.471571 85.855270 1.252749 -1.096686 2.079781 -4.180143 1.428411 -0.977300 2.451601 0.758199 0.318566 5.745182 0.742114 0.818418 5.655430 1.206643 -0.385499 -2.160363 2.067127 0.175236 -7.856005 -0.000000 0.000000 0.000000 3.534454 -14.092938 -4.717280 0.422122 2.468187 -82.274273 -0.000004 -13.740618 -0.000043 -23.356419 4.329364 -10.608898 0.545953 4.972095 -10.566425 0.508705 3.121873 -23.760492 0.041457 0.863563 -10.635371 0.000001 -0.000000 -0.000001 18.351916 -1.344825 10.651739 1.749235 33.935768 -3.097321 1.857252 9.678984 0.112285 -0.000000 -0.000002 -0.000001 4.458230 3.640834 5.386110 -0.575334 -1.546294 66.530762 -0.000004 17.458249 0.000019 -8.761030 -11.340318 10.917930 18.305382 0.373709 -10.884886 1.318679 -32.596115 3.051082 1.945823 -8.446080 1.170656 0.000000 -0.000001 0.000001 0.339978 -4.674341 7.874056 0.401941 -2.862840 20.982508 -0.193124 -0.216347 13.843946 -0.000000 0.000000 0.000001 -17.597260 11.175911 15.604771 23.555946 8.548669 2.512235 -4.099457 4.010819 -10.506321 -0.587409 0.000009 -0.000002 0.000000 0.000000 -0.000000 1.670145 -4.020461 10.110679 9.936677 -5.362914 3.158066 -10.701118 0.517577 -7.990601 -0.416276 -0.000003 0.000003 0.000000 -0.000000 -0.000000 
1.762455 85.800285 1.173553 -1.307090 2.674391 -3.520824 1.579288 -0.724655 2.425073 0.790717 0.380273 5.535162 0.776683 0.862017 5.448441 1.360704 -0.487718 -2.150830 2.553195 -0.282701 -7.537273 -0.000000 0.000000 0.000000 3.488747 -14.444446 -4.359051 -3.204035 1.029148 -80.878579 0.000007 -13.012313 0.000018 -18.956497 4.761710 -12.019265 0.776836 5.255213 -13.439546 0.655343 3.429491 -27.140812 0.049094 0.912952 -11.128103 -0.000000 -0.000000 -0.000003 18.211789 -2.274059 10.381556 2.242614 35.166742 -3.118696 1.587417 10.050547 0.602917 0.000000 -0.000001 -0.000001 4.407487 3.970658 5.302927 0.067445 -3.776323 65.765918 -0.000004 17.209992 0.000021 -6.092845 -13.662250 12.017377 18.099732 0.276612 -10.850572 1.357002 -32.417584 3.008990 1.876285 -8.463484 1.232502 0.000001 -0.000003 0.000001 0.340436 -4.677643 7.907001 0.418772 -2.906149 21.443113 -0.193125 -0.216349 13.843943 0.000000 -0.000001 0.000001 -17.376939 11.308800 14.380972 23.448255 8.248259 2.769050 -3.978748 3.997716 -10.115743 -0.736629 -0.000017 -0.000000 0.000000 0.000000 -0.000000 1.017103 -3.943402 9.207524 11.709629 -5.509672 3.123272 -11.729771 -0.059221 -7.622240 -0.294583 -0.000003 0.000000 0.000000 -0.000001 0.000000 
2.119230 85.743492 1.084526 -1.551598 3.464213 -2.753068 1.760010 -0.410278 2.388458 0.831272 0.459436 5.286616 0.819780 0.920102 5.203408 1.521374 -0.632224 -2.131673 3.099149 -0.919909 -7.133363 -0.000000 0.000000 0.000000 3.441473 -14.867698 -3.916021 -7.237155 -1.108809 -79.389761 0.000001 -12.257749 0.000006 -13.849885 4.943790 -13.836438 1.063352 5.544888 -16.849382 0.853203 3.783499 -31.165655 0.058743 0.971669 -11.714752 0.000000 -0.000000 -0.000003 18.055842 -3.372925 10.072776 2.832044 36.610675 -3.161092 1.274192 10.469248 1.176542 -0.000003 0.000001 -0.000000 4.349656 4.356389 5.213797 0.796919 -6.289948 64.973377 -0.000002 16.977897 -0.000009 -2.757105 -16.361167 13.709092 17.842781 0.155096 -10.808008 1.404997 -32.194694 2.956180 1.789448 -8.485463 1.309769 -0.000000 -0.000001 -0.000000 0.341011 -4.681775 7.948122 0.440298 -2.960086 22.018831 -0.193126 -0.216348 13.843937 -0.000001 -0.000001 -0.000000 -17.124512 11.448544 12.915474 23.281036 7.830336 3.088894 -3.797552 3.966243 -9.623166 -0.914200 0.000013 0.000001 0.000000 -0.000000 -0.000000 0.361295 -3.846290 8.147115 13.589620 -5.798610 3.081533 -12.835723 -0.713972 -7.141245 -0.174806 0.000001 -0.000001 -0.000000 0.000001 0.000000 
